<?xml version="1.0" encoding="utf-8" standalone="no"?>
<!DOCTYPE svg PUBLIC "-//W3C//DTD SVG 1.1//EN"
  "http://www.w3.org/Graphics/SVG/1.1/DTD/svg11.dtd">
<svg xmlns:xlink="http://www.w3.org/1999/xlink" width="1144.8pt" height="427.834566pt" viewBox="0 0 1144.8 427.834566" xmlns="http://www.w3.org/2000/svg" version="1.1">
 <metadata>
  <rdf:RDF xmlns:dc="http://purl.org/dc/elements/1.1/" xmlns:cc="http://creativecommons.org/ns#" xmlns:rdf="http://www.w3.org/1999/02/22-rdf-syntax-ns#">
   <cc:Work>
    <dc:type rdf:resource="http://purl.org/dc/dcmitype/StillImage"/>
    <dc:date>2026-05-18T12:37:34.953912</dc:date>
    <dc:format>image/svg+xml</dc:format>
    <dc:creator>
     <cc:Agent>
      <dc:title>Matplotlib v3.9.4, https://matplotlib.org/</dc:title>
     </cc:Agent>
    </dc:creator>
   </cc:Work>
  </rdf:RDF>
 </metadata>
 <defs>
  <style type="text/css">*{stroke-linejoin: round; stroke-linecap: butt}</style>
 </defs>
 <g id="figure_1">
  <g id="patch_1">
   <path d="M 0 427.834566 
L 1144.8 427.834566 
L 1144.8 0 
L 0 0 
z
" style="fill: #ffffff"/>
  </g>
  <g id="axes_1">
   <g id="patch_2">
    <path d="M 255.269764 214.341749 
Q 187.512837 137.794907 112.721455 70.088447 
" clip-path="url(#pae1db011f8)" style="fill: none; stroke: #555555; stroke-width: 1.2; stroke-linecap: round"/>
    <path d="M 115.318496 76.755934 
L 112.721455 70.088447 
L 119.613669 72.011306 
z
" clip-path="url(#pae1db011f8)" style="fill: #555555; stroke: #555555; stroke-width: 1.2; stroke-linecap: round"/>
   </g>
   <g id="patch_3">
    <path d="M 269.638316 221.330075 
Q 338.843835 225.021402 406.709618 221.401791 
" clip-path="url(#pae1db011f8)" style="fill: none; stroke: #555555; stroke-width: 1.2; stroke-linecap: round"/>
    <path d="M 400.148273 218.547191 
L 406.709618 221.401791 
L 400.489131 224.938108 
z
" clip-path="url(#pae1db011f8)" style="fill: #555555; stroke: #555555; stroke-width: 1.2; stroke-linecap: round"/>
   </g>
   <g id="patch_4">
    <path d="M 425.340795 221.330075 
Q 494.546315 225.021402 562.412098 221.401791 
" clip-path="url(#pae1db011f8)" style="fill: none; stroke: #555555; stroke-width: 1.2; stroke-linecap: round"/>
    <path d="M 555.850752 218.547191 
L 562.412098 221.401791 
L 556.191611 224.938108 
z
" clip-path="url(#pae1db011f8)" style="fill: #555555; stroke: #555555; stroke-width: 1.2; stroke-linecap: round"/>
   </g>
   <g id="patch_5">
    <path d="M 719.459205 220.350459 
Q 650.253685 216.659131 582.387902 220.278743 
" clip-path="url(#pae1db011f8)" style="fill: none; stroke: #555555; stroke-width: 1.2; stroke-linecap: round"/>
    <path d="M 588.949248 223.133343 
L 582.387902 220.278743 
L 588.608389 216.742426 
z
" clip-path="url(#pae1db011f8)" style="fill: #555555; stroke: #555555; stroke-width: 1.2; stroke-linecap: round"/>
   </g>
   <g id="patch_6">
    <path d="M 875.161684 220.350459 
Q 805.956165 216.659131 738.090382 220.278743 
" clip-path="url(#pae1db011f8)" style="fill: none; stroke: #555555; stroke-width: 1.2; stroke-linecap: round"/>
    <path d="M 744.651727 223.133343 
L 738.090382 220.278743 
L 744.310869 216.742426 
z
" clip-path="url(#pae1db011f8)" style="fill: #555555; stroke: #555555; stroke-width: 1.2; stroke-linecap: round"/>
   </g>
   <g id="patch_7">
    <path d="M 890.506529 215.355388 
Q 965.613779 153.576839 1032.543437 84.882166 
" clip-path="url(#pae1db011f8)" style="fill: none; stroke: #555555; stroke-width: 1.2; stroke-linecap: round"/>
    <path d="M 1025.785231 87.23305 
L 1032.543437 84.882166 
L 1030.369221 91.699261 
z
" clip-path="url(#pae1db011f8)" style="fill: #555555; stroke: #555555; stroke-width: 1.2; stroke-linecap: round"/>
   </g>
   <g id="patch_8">
    <path d="M 889.833092 227.057706 
Q 957.699029 296.713306 1031.770142 357.639553 
" clip-path="url(#pae1db011f8)" style="fill: none; stroke: #555555; stroke-width: 1.2; stroke-linecap: round"/>
    <path d="M 1028.860185 351.10257 
L 1031.770142 357.639553 
L 1024.794581 356.045329 
z
" clip-path="url(#pae1db011f8)" style="fill: #555555; stroke: #555555; stroke-width: 1.2; stroke-linecap: round"/>
   </g>
   <g id="text_1">
    <g id="patch_9">
     <path d="M 148.937317 147.700106 
L 217.350286 147.700106 
Q 219.450286 147.700106 219.450286 145.600106 
L 219.450286 138.630731 
Q 219.450286 136.530731 217.350286 136.530731 
L 148.937317 136.530731 
Q 146.837317 136.530731 146.837317 138.630731 
L 146.837317 145.600106 
Q 146.837317 147.700106 148.937317 147.700106 
z
" clip-path="url(#pae1db011f8)" style="fill: #ffffff; stroke: #ffffff; stroke-linejoin: miter"/>
    </g>
    <g clip-path="url(#pae1db011f8)">
     <text style="font: 7px 'Malgun Gothic'; text-anchor: middle" x="183.143802" y="143.945262" transform="rotate(-0 183.143802 143.945262)">RELATED_TO_ARTICLE</text>
    </g>
   </g>
   <g id="text_2">
    <g id="patch_10">
     <path d="M 307.122609 226.424954 
L 370.569953 226.424954 
Q 372.669953 226.424954 372.669953 224.324954 
L 372.669953 217.355579 
Q 372.669953 215.255579 370.569953 215.255579 
L 307.122609 215.255579 
Q 305.022609 215.255579 305.022609 217.355579 
L 305.022609 224.324954 
Q 305.022609 226.424954 307.122609 226.424954 
z
" clip-path="url(#pae1db011f8)" style="fill: #ffffff; stroke: #ffffff; stroke-linejoin: miter"/>
    </g>
    <g clip-path="url(#pae1db011f8)">
     <text style="font: 7px 'Malgun Gothic'; text-anchor: middle" x="338.846281" y="222.670111" transform="rotate(-0 338.846281 222.670111)">HAS_LOGICAL_ROW</text>
    </g>
   </g>
   <g id="text_3">
    <g id="patch_11">
     <path d="M 463.573213 226.424954 
L 525.524307 226.424954 
Q 527.624307 226.424954 527.624307 224.324954 
L 527.624307 217.355579 
Q 527.624307 215.255579 525.524307 215.255579 
L 463.573213 215.255579 
Q 461.473213 215.255579 461.473213 217.355579 
L 461.473213 224.324954 
Q 461.473213 226.424954 463.573213 226.424954 
z
" clip-path="url(#pae1db011f8)" style="fill: #ffffff; stroke: #ffffff; stroke-linejoin: miter"/>
    </g>
    <g clip-path="url(#pae1db011f8)">
     <text style="font: 7px 'Malgun Gothic'; text-anchor: middle" x="494.54876" y="222.670111" transform="rotate(-0 494.54876 222.670111)">HAS_LOGICAL_CELL</text>
    </g>
   </g>
   <g id="text_4">
    <g id="patch_12">
     <path d="M 628.409599 226.424954 
L 672.09288 226.424954 
Q 674.19288 226.424954 674.19288 224.324954 
L 674.19288 217.355579 
Q 674.19288 215.255579 672.09288 215.255579 
L 628.409599 215.255579 
Q 626.309599 215.255579 626.309599 217.355579 
L 626.309599 224.324954 
Q 626.309599 226.424954 628.409599 226.424954 
z
" clip-path="url(#pae1db011f8)" style="fill: #ffffff; stroke: #ffffff; stroke-linejoin: miter"/>
    </g>
    <g clip-path="url(#pae1db011f8)">
     <text style="font: 7px 'Malgun Gothic'; text-anchor: middle" x="650.25124" y="222.670111" transform="rotate(-0 650.25124 222.670111)">RESOLVES_TO</text>
    </g>
   </g>
   <g id="text_5">
    <g id="patch_13">
     <path d="M 776.045672 226.424954 
L 835.861766 226.424954 
Q 837.961766 226.424954 837.961766 224.324954 
L 837.961766 217.355579 
Q 837.961766 215.255579 835.861766 215.255579 
L 776.045672 215.255579 
Q 773.945672 215.255579 773.945672 217.355579 
L 773.945672 224.324954 
Q 773.945672 226.424954 776.045672 226.424954 
z
" clip-path="url(#pae1db011f8)" style="fill: #ffffff; stroke: #ffffff; stroke-linejoin: miter"/>
    </g>
    <g clip-path="url(#pae1db011f8)">
     <text style="font: 7px 'Malgun Gothic'; text-anchor: middle" x="805.953719" y="222.670111" transform="rotate(-0 805.953719 222.670111)">EXTRACTED_FROM</text>
    </g>
   </g>
   <g id="text_6">
    <g id="patch_14">
     <path d="M 929.860339 154.85691 
L 993.452058 154.85691 
Q 995.552058 154.85691 995.552058 152.75691 
L 995.552058 145.787535 
Q 995.552058 143.687535 993.452058 143.687535 
L 929.860339 143.687535 
Q 927.760339 143.687535 927.760339 145.787535 
L 927.760339 152.75691 
Q 927.760339 154.85691 929.860339 154.85691 
z
" clip-path="url(#pae1db011f8)" style="fill: #ffffff; stroke: #ffffff; stroke-linejoin: miter"/>
    </g>
    <g clip-path="url(#pae1db011f8)">
     <text style="font: 7px 'Malgun Gothic'; text-anchor: middle" x="961.656198" y="151.102067" transform="rotate(-0 961.656198 151.102067)">HAS_REQUIREMENT</text>
    </g>
   </g>
   <g id="text_7">
    <g id="patch_15">
     <path d="M 933.742058 297.992998 
L 989.570339 297.992998 
Q 991.670339 297.992998 991.670339 295.892998 
L 991.670339 288.923623 
Q 991.670339 286.823623 989.570339 286.823623 
L 933.742058 286.823623 
Q 931.642058 286.823623 931.642058 288.923623 
L 931.642058 295.892998 
Q 931.642058 297.992998 933.742058 297.992998 
z
" clip-path="url(#pae1db011f8)" style="fill: #ffffff; stroke: #ffffff; stroke-linejoin: miter"/>
    </g>
    <g clip-path="url(#pae1db011f8)">
     <text style="font: 7px 'Malgun Gothic'; text-anchor: middle" x="961.656198" y="294.238155" transform="rotate(-0 961.656198 294.238155)">HAS_THRESHOLD</text>
    </g>
   </g>
   <g id="PathCollection_1">
    <defs>
     <path id="C0_0_12a59ddcd0" d="M 0 27.386128 
C 7.262886 27.386128 14.229281 24.500553 19.364917 19.364917 
C 24.500553 14.229281 27.386128 7.262886 27.386128 -0 
C 27.386128 -7.262886 24.500553 -14.229281 19.364917 -19.364917 
C 14.229281 -24.500553 7.262886 -27.386128 0 -27.386128 
C -7.262886 -27.386128 -14.229281 -24.500553 -19.364917 -19.364917 
C -24.500553 -14.229281 -27.386128 -7.262886 -27.386128 0 
C -27.386128 7.262886 -24.500553 14.229281 -19.364917 19.364917 
C -14.229281 24.500553 -7.262886 27.386128 0 27.386128 
z
"/>
    </defs>
    <g clip-path="url(#pae1db011f8)">
     <use xlink:href="#C0_0_12a59ddcd0" x="105.292562" y="63.39057" style="fill: #9ecae1; stroke: #333333; stroke-width: 0.8"/>
    </g>
    <g clip-path="url(#pae1db011f8)">
     <use xlink:href="#C0_0_12a59ddcd0" x="260.995041" y="220.840267" style="fill: #9467bd; stroke: #333333; stroke-width: 0.8"/>
    </g>
    <g clip-path="url(#pae1db011f8)">
     <use xlink:href="#C0_0_12a59ddcd0" x="416.697521" y="220.840267" style="fill: #c5b0d5; stroke: #333333; stroke-width: 0.8"/>
    </g>
    <g clip-path="url(#pae1db011f8)">
     <use xlink:href="#C0_0_12a59ddcd0" x="572.4" y="220.840267" style="fill: #e7d4ef; stroke: #333333; stroke-width: 0.8"/>
    </g>
    <g clip-path="url(#pae1db011f8)">
     <use xlink:href="#C0_0_12a59ddcd0" x="728.102479" y="220.840267" style="fill: #7f7f7f; stroke: #333333; stroke-width: 0.8"/>
    </g>
    <g clip-path="url(#pae1db011f8)">
     <use xlink:href="#C0_0_12a59ddcd0" x="883.804959" y="220.840267" style="fill: #2ca02c; stroke: #333333; stroke-width: 0.8"/>
    </g>
    <g clip-path="url(#pae1db011f8)">
     <use xlink:href="#C0_0_12a59ddcd0" x="1039.507438" y="77.704179" style="fill: #98df8a; stroke: #333333; stroke-width: 0.8"/>
    </g>
    <g clip-path="url(#pae1db011f8)">
     <use xlink:href="#C0_0_12a59ddcd0" x="1039.507438" y="363.976355" style="fill: #c7e9c0; stroke: #333333; stroke-width: 0.8"/>
    </g>
   </g>
   <g id="text_8">
    <g clip-path="url(#pae1db011f8)">
     <text style="font: 8.5px 'Malgun Gothic'" transform="translate(69.245921 60.735781)">Doc Article 제26조</text>
    </g>
    <g clip-path="url(#pae1db011f8)">
     <text style="font: 8.5px 'Malgun Gothic'" transform="translate(58.31014 70.489265)">교육시간 및 교육내용 등</text>
    </g>
   </g>
   <g id="text_9">
    <g clip-path="url(#pae1db011f8)">
     <text style="font: 8.5px 'Malgun Gothic'" transform="translate(245.198323 208.187353)">Annex 4</text>
    </g>
    <g clip-path="url(#pae1db011f8)">
     <text style="font: 8.5px 'Malgun Gothic'" transform="translate(235.495041 217.940837)">안전보건교육</text>
    </g>
    <g clip-path="url(#pae1db011f8)">
     <text style="font: 8.5px 'Malgun Gothic'" transform="translate(195.933518 227.963665)">교육과정별 교육시간(제26조제1항</text>
    </g>
    <g clip-path="url(#pae1db011f8)">
     <text style="font: 8.5px 'Malgun Gothic'" transform="translate(245.455979 237.937087)">등 관련)</text>
    </g>
   </g>
   <g id="text_10">
    <g clip-path="url(#pae1db011f8)">
     <text style="font: 8.5px 'Malgun Gothic'" transform="translate(395.107521 208.299447)">LogicalRow</text>
    </g>
    <g clip-path="url(#pae1db011f8)">
     <text style="font: 8.5px 'Malgun Gothic'" transform="translate(393.521739 218.098087)">고 12시간은</text>
    </g>
    <g clip-path="url(#pae1db011f8)">
     <text style="font: 8.5px 'Malgun Gothic'" transform="translate(368.868419 227.851572)">3개월 이내에서 분할하여</text>
    </g>
    <g clip-path="url(#pae1db011f8)">
     <text style="font: 8.5px 'Malgun Gothic'" transform="translate(372.209318 237.824993)">실시가능) 단기간 작업?</text>
    </g>
   </g>
   <g id="text_11">
    <g clip-path="url(#pae1db011f8)">
     <text style="font: 8.5px 'Malgun Gothic'" transform="translate(551.880469 208.22215)">LogicalCell</text>
    </g>
    <g clip-path="url(#pae1db011f8)">
     <text style="font: 8.5px 'Malgun Gothic'" transform="translate(568.15 218.02079)">고</text>
    </g>
    <g clip-path="url(#pae1db011f8)">
     <text style="font: 8.5px 'Malgun Gothic'" transform="translate(524.139258 227.774275)">12시간은 3개월 이내에서</text>
    </g>
    <g clip-path="url(#pae1db011f8)">
     <text style="font: 8.5px 'Malgun Gothic'" transform="translate(509.417656 237.90229)">분할하여 실시가능) 단기간 작업?</text>
    </g>
   </g>
   <g id="text_12">
    <g clip-path="url(#pae1db011f8)">
     <text style="font: 8.5px 'Malgun Gothic'" transform="translate(704.4333 218.1629)">SourceNode</text>
    </g>
    <g clip-path="url(#pae1db011f8)">
     <text style="font: 8.5px 'Malgun Gothic'" transform="translate(694.273143 227.916384)">annex_logical_cell</text>
    </g>
   </g>
   <g id="text_13">
    <g clip-path="url(#pae1db011f8)">
     <text style="font: 8.5px 'Malgun Gothic'" transform="translate(875.435779 218.185478)">Rule</text>
    </g>
    <g clip-path="url(#pae1db011f8)">
     <text style="font: 8.5px 'Malgun Gothic'" transform="translate(823.547263 227.938962)">THRESHOLD/EDUCATION_TIME</text>
    </g>
   </g>
   <g id="text_14">
    <g clip-path="url(#pae1db011f8)">
     <text style="font: 8.5px 'Malgun Gothic'" transform="translate(1015.052672 65.295905)">Requirement</text>
    </g>
    <g clip-path="url(#pae1db011f8)">
     <text style="font: 8.5px 'Malgun Gothic'" transform="translate(1021.577751 75.04939)">교육과정:</text>
    </g>
    <g clip-path="url(#pae1db011f8)">
     <text style="font: 8.5px 'Malgun Gothic'" transform="translate(985.502555 84.802874)">고 12시간은 3개월 이내에서</text>
    </g>
    <g clip-path="url(#pae1db011f8)">
     <text style="font: 8.5px 'Malgun Gothic'" transform="translate(1014.808297 94.556358)">분할하여 실?</text>
    </g>
   </g>
   <g id="text_15">
    <g clip-path="url(#pae1db011f8)">
     <text style="font: 8.5px 'Malgun Gothic'" transform="translate(1020.610876 361.321566)">Threshold</text>
    </g>
    <g clip-path="url(#pae1db011f8)">
     <text style="font: 8.5px 'Malgun Gothic'" transform="translate(1018.672477 371.07505)">2시간 이상</text>
    </g>
   </g>
   <g id="text_16">
    <text style="font: 14px 'Malgun Gothic'; text-anchor: middle" x="572.4" y="17.829062" transform="rotate(-0 572.4 17.829062)">Neo4j Integrated Example: Education Hours Evidence Chain</text>
   </g>
   <g id="legend_1">
    <g id="patch_16">
     <path d="M 389.450625 403.493316 
L 405.450625 403.493316 
L 405.450625 397.893316 
L 389.450625 397.893316 
z
" style="fill: #9ecae1; stroke: #333333; stroke-linejoin: miter"/>
    </g>
    <g id="text_17">
     <text style="font: 8px 'Malgun Gothic'; text-anchor: start" x="411.850625" y="403.493316" transform="rotate(-0 411.850625 403.493316)">Article</text>
    </g>
    <g id="patch_17">
     <path d="M 389.450625 415.458316 
L 405.450625 415.458316 
L 405.450625 409.858316 
L 389.450625 409.858316 
z
" style="fill: #9467bd; stroke: #333333; stroke-linejoin: miter"/>
    </g>
    <g id="text_18">
     <text style="font: 8px 'Malgun Gothic'; text-anchor: start" x="411.850625" y="415.458316" transform="rotate(-0 411.850625 415.458316)">Annex</text>
    </g>
    <g id="patch_18">
     <path d="M 450.953125 403.493316 
L 466.953125 403.493316 
L 466.953125 397.893316 
L 450.953125 397.893316 
z
" style="fill: #c5b0d5; stroke: #333333; stroke-linejoin: miter"/>
    </g>
    <g id="text_19">
     <text style="font: 8px 'Malgun Gothic'; text-anchor: start" x="473.353125" y="403.493316" transform="rotate(-0 473.353125 403.493316)">LogicalRow</text>
    </g>
    <g id="patch_19">
     <path d="M 450.953125 415.500816 
L 466.953125 415.500816 
L 466.953125 409.900816 
L 450.953125 409.900816 
z
" style="fill: #e7d4ef; stroke: #333333; stroke-linejoin: miter"/>
    </g>
    <g id="text_20">
     <text style="font: 8px 'Malgun Gothic'; text-anchor: start" x="473.353125" y="415.500816" transform="rotate(-0 473.353125 415.500816)">LogicalCell</text>
    </g>
    <g id="patch_20">
     <path d="M 529.993125 403.493316 
L 545.993125 403.493316 
L 545.993125 397.893316 
L 529.993125 397.893316 
z
" style="fill: #7f7f7f; stroke: #333333; stroke-linejoin: miter"/>
    </g>
    <g id="text_21">
     <text style="font: 8px 'Malgun Gothic'; text-anchor: start" x="552.393125" y="403.493316" transform="rotate(-0 552.393125 403.493316)">SourceNode</text>
    </g>
    <g id="patch_21">
     <path d="M 529.993125 415.458316 
L 545.993125 415.458316 
L 545.993125 409.858316 
L 529.993125 409.858316 
z
" style="fill: #2ca02c; stroke: #333333; stroke-linejoin: miter"/>
    </g>
    <g id="text_22">
     <text style="font: 8px 'Malgun Gothic'; text-anchor: start" x="552.393125" y="415.458316" transform="rotate(-0 552.393125 415.458316)">Rule</text>
    </g>
    <g id="patch_22">
     <path d="M 612.946875 403.493316 
L 628.946875 403.493316 
L 628.946875 397.893316 
L 612.946875 397.893316 
z
" style="fill: #98df8a; stroke: #333333; stroke-linejoin: miter"/>
    </g>
    <g id="text_23">
     <text style="font: 8px 'Malgun Gothic'; text-anchor: start" x="635.346875" y="403.493316" transform="rotate(-0 635.346875 403.493316)">Requirement</text>
    </g>
    <g id="patch_23">
     <path d="M 697.379375 403.493316 
L 713.379375 403.493316 
L 713.379375 397.893316 
L 697.379375 397.893316 
z
" style="fill: #c7e9c0; stroke: #333333; stroke-linejoin: miter"/>
    </g>
    <g id="text_24">
     <text style="font: 8px 'Malgun Gothic'; text-anchor: start" x="719.779375" y="403.493316" transform="rotate(-0 719.779375 403.493316)">Threshold</text>
    </g>
   </g>
  </g>
 </g>
 <defs>
  <clipPath id="pae1db011f8">
   <rect x="7.2" y="31.829062" width="1130.4" height="363.7088"/>
  </clipPath>
 </defs>
</svg>
